HIERARCHY
ROOT Hips
{
	OFFSET 0.000000 0.000000 0.000000
	CHANNELS 6 Xposition Yposition Zposition Xrotation Yrotation Zrotation
	JOINT LeftUpLeg_virtual
	{
		OFFSET 0.000000 0.000000 0.000000
		CHANNELS 3 Xrotation Yrotation Zrotation
		JOINT LeftUpLeg
		{
			OFFSET 10.205400 -3.823500 0.155100
			CHANNELS 3 Xrotation Yrotation Zrotation
			JOINT LeftLeg
			{
				OFFSET 0.708757 -12.982077 0.567790
				CHANNELS 3 Xrotation Yrotation Zrotation
				JOINT LeftFoot
				{
					OFFSET -0.708756 -10.717838 -2.184338
					CHANNELS 3 Xrotation Yrotation Zrotation
					JOINT LeftToeBase
					{
						OFFSET 0.108149 -7.191104 7.560241
						CHANNELS 3 Xrotation Yrotation Zrotation
						JOINT LeftToe_End
						{
							OFFSET 0.070230 0.081724 4.490308
							CHANNELS 3 Xrotation Yrotation Zrotation
							End Site
							{
								OFFSET 0 0 0
							}
						}
					}
				}
			}
		}
	}
	JOINT RightUpLeg_virtual
	{
		OFFSET 0.000000 0.000000 0.000000
		CHANNELS 3 Xrotation Yrotation Zrotation
		JOINT RightUpLeg
		{
			OFFSET -10.205400 -3.823500 0.005500
			CHANNELS 3 Xrotation Yrotation Zrotation
			JOINT RightLeg
			{
				OFFSET -0.708756 -12.982134 0.610632
				CHANNELS 3 Xrotation Yrotation Zrotation
				JOINT RightFoot
				{
					OFFSET 0.708754 -10.717769 -1.945823
					CHANNELS 3 Xrotation Yrotation Zrotation
					JOINT RightToeBase
					{
						OFFSET -0.108140 -7.191069 7.372968
						CHANNELS 3 Xrotation Yrotation Zrotation
						JOINT RightToe_End
						{
							OFFSET -0.070227 0.081735 4.479403
							CHANNELS 3 Xrotation Yrotation Zrotation
							End Site
							{
								OFFSET 0 0 0
							}
						}
					}
				}
			}
		}
	}
	JOINT Spine_virtual
	{
		OFFSET 0.000000 0.000000 0.000000
		CHANNELS 3 Xrotation Yrotation Zrotation
		JOINT Spine
		{
			OFFSET 0.000000 6.876099 0.125700
			CHANNELS 3 Xrotation Yrotation Zrotation
			JOINT Spine1
			{
				OFFSET 0.000000 5.730043 0.104720
				CHANNELS 3 Xrotation Yrotation Zrotation
				JOINT Spine1_split
				{
					OFFSET 0.000000 5.730043 0.104720
					CHANNELS 3 Xrotation Yrotation Zrotation
					JOINT Spine2
					{
						OFFSET 0.000000 5.730043 0.104720
						CHANNELS 3 Xrotation Yrotation Zrotation
						JOINT Neck_virtual
						{
							OFFSET 0.000000 0.000000 0.000000
							CHANNELS 3 Xrotation Yrotation Zrotation
							JOINT Neck
							{
								OFFSET 0.000000 10.314075 0.188496
								CHANNELS 3 Xrotation Yrotation Zrotation
								JOINT Head
								{
									OFFSET 0.000000 7.643700 -2.377400
									CHANNELS 3 Xrotation Yrotation Zrotation
									JOINT HeadTop_End
									{
										OFFSET 0.000000 43.788605 -13.619600
										CHANNELS 3 Xrotation Yrotation Zrotation
										End Site
										{
											OFFSET 0 0 0
										}
									}
								}
							}
						}
						JOINT LeftShoulder_virtual
						{
							OFFSET 0.000000 0.000000 0.000000
							CHANNELS 3 Xrotation Yrotation Zrotation
							JOINT LeftShoulder
							{
								OFFSET 2.196100 4.412489 0.087492
								CHANNELS 3 Xrotation Yrotation Zrotation
								JOINT LeftShoulder_split
								{
									OFFSET 2.196100 4.412489 0.087492
									CHANNELS 3 Xrotation Yrotation Zrotation
									JOINT LeftArm
									{
										OFFSET 8.771219 -2.981674 -0.026999
										CHANNELS 3 Xrotation Yrotation Zrotation
										JOINT LeftForeArm
										{
											OFFSET 8.512804 0.000000 -0.000000
											CHANNELS 3 Xrotation Yrotation Zrotation
											JOINT LeftHand
											{
												OFFSET 18.484802 0.000000 -0.000000
												CHANNELS 3 Xrotation Yrotation Zrotation
												End Site
												{
													OFFSET 0 0 0
												}
											}
										}
									}
								}
							}
						}
						JOINT RightShoulder_virtual
						{
							OFFSET 0.000000 0.000000 0.000000
							CHANNELS 3 Xrotation Yrotation Zrotation
							JOINT RightShoulder
							{
								OFFSET -2.196100 4.412496 0.070690
								CHANNELS 3 Xrotation Yrotation Zrotation
								JOINT RightShoulder_split
								{
									OFFSET -2.196100 4.412496 0.070690
									CHANNELS 3 Xrotation Yrotation Zrotation
									JOINT RightArm
									{
										OFFSET -8.771282 -2.981682 -0.094208
										CHANNELS 3 Xrotation Yrotation Zrotation
										JOINT RightForeArm
										{
											OFFSET -8.494598 0.000000 0.000000
											CHANNELS 3 Xrotation Yrotation Zrotation
											JOINT RightHand
											{
												OFFSET -18.483803 0.000000 0.000001
												CHANNELS 3 Xrotation Yrotation Zrotation
												End Site
												{
													OFFSET 0 0 0
												}
											}
										}
									}
								}
							}
						}
					}
				}
			}
		}
	}
}
MOTION
Frames: 5
Frame Time: 0.03333333
2.846770 34.357155 -4.942770 0.000000 0.000000 0.000000 4.328842 16.051482 -5.033950 -18.570296 13.326335 18.463260 24.438507 10.099624 2.194210 -8.749385 6.508317 -26.737370 0.612301 -5.150223 6.354837 0.000000 0.000000 0.000000 4.772964 14.926789 -5.182443 6.247912 0.058499 11.450595 -2.809018 -2.754591 4.098898 -15.866138 -4.710945 -4.238666 1.304268 -0.687528 -9.644277 0.000000 0.000000 0.000000 4.836878 16.109735 -5.254215 -0.604558 -1.988305 3.383444 -0.272664 0.866596 4.723732 0.095572 -0.160323 -0.054013 0.000000 0.000000 0.000000 0.262683 3.994630 4.438975 0.383954 6.015578 0.329143 -14.648321 -42.230575 -25.132808 0.000000 0.000000 0.000000 -0.379144 2.157878 4.098286 2.197340 -7.361532 -8.716550 2.369794 -1.247757 -3.176754 5.075189 3.201210 -80.696397 3.548395 -12.822429 0.168160 0.000000 0.000000 0.000000 0.867379 2.627953 4.626125 1.477826 0.816902 12.491356 -8.229999 -0.546085 1.242956 -0.395181 5.169589 63.647391 -12.685400 8.585165 2.344500 0.000000 0.000000 0.000000 
2.768332 34.337719 -4.923086 0.000000 0.000000 0.000000 4.391494 16.270346 -5.089009 -18.735552 13.229497 18.486995 24.512746 10.168659 2.320364 -8.726594 6.575904 -26.867862 0.641400 -5.156587 6.258822 0.000000 0.000000 0.000000 4.858002 14.979180 -5.231864 6.313447 0.188092 11.641944 -2.987917 -2.802582 4.002078 -15.848940 -4.762262 -4.254366 1.084113 -0.682402 -9.637320 0.000000 0.000000 0.000000 5.008253 16.307162 -5.330159 -0.662852 -1.988544 3.369746 -0.209007 0.911997 4.684875 0.108923 -0.174279 -0.049793 0.000000 0.000000 0.000000 0.321541 4.022053 4.417948 0.244861 5.971492 0.536171 -14.695874 -42.040484 -25.087918 0.000000 0.000000 0.000000 -0.320122 2.183158 4.113702 2.180706 -7.397383 -8.788042 2.171746 -1.497494 -2.992733 4.856289 3.181082 -80.476909 3.427683 -12.816287 0.068695 0.000000 0.000000 0.000000 0.851739 2.632486 4.614798 1.482294 1.029724 12.483871 -7.782562 -0.162816 1.142730 -0.414286 5.362266 63.745753 -12.742202 8.891860 2.379379 0.000000 0.000000 0.000000 
2.673612 34.300377 -4.911066 0.000000 0.000000 0.000000 4.498195 16.461847 -5.256745 -19.069492 13.084245 18.670180 24.725802 10.132577 2.410959 -8.750153 6.659679 -26.858035 0.739522 -5.173745 6.209567 0.000000 0.000000 0.000000 4.962686 15.076241 -5.383558 6.354685 0.300615 11.992391 -3.145846 -2.861947 3.904016 -15.812470 -4.861097 -4.171115 0.773389 -0.731667 -9.513236 0.000000 0.000000 0.000000 5.123368 16.420308 -5.482729 -0.723098 -1.945271 3.387020 -0.072943 0.960965 4.660107 0.128503 -0.189231 -0.045956 0.000000 0.000000 0.000000 0.447655 4.060513 4.397463 0.055057 5.901284 0.746234 -14.724071 -41.764049 -25.049872 0.000000 0.000000 0.000000 -0.184116 2.201607 4.130060 2.138935 -7.465045 -8.905393 2.019553 -1.719061 -2.930386 4.470122 3.128143 -80.036737 3.324970 -12.841288 0.038701 0.000000 0.000000 0.000000 0.911503 2.641544 4.615648 1.420061 1.233960 12.611156 -7.424006 0.013504 1.014166 -0.269589 6.077527 63.861517 -12.648698 9.028964 2.267944 0.000000 0.000000 0.000000 
2.576913 34.252041 -4.905743 0.000000 0.000000 0.000000 4.615597 16.597640 -5.503827 -19.530292 12.885551 18.955006 25.075581 9.996366 2.464127 -8.786145 6.757961 -26.714941 0.828387 -5.211646 6.213876 0.000000 0.000000 0.000000 5.075077 15.206467 -5.615986 6.321880 0.398292 12.450999 -3.235876 -2.931302 3.818003 -15.781905 -5.003933 -4.015469 0.470780 -0.827309 -9.283149 0.000000 0.000000 0.000000 5.171334 16.446928 -5.684336 -0.789685 -1.863805 3.421052 0.127683 1.005967 4.648665 0.141917 -0.199515 -0.044934 0.000000 0.000000 0.000000 0.633869 4.097202 4.377321 -0.188574 5.801012 0.970964 -14.717465 -41.395301 -25.023800 0.000000 0.000000 0.000000 0.023780 2.207348 4.146088 2.074150 -7.578605 -9.066520 1.863236 -1.941797 -2.959818 3.964941 3.020566 -79.462113 3.254596 -12.892253 0.077067 0.000000 0.000000 0.000000 1.042342 2.650412 4.631419 1.295161 1.409318 12.854989 -7.197004 -0.019823 0.894235 0.030233 7.147201 63.935659 -12.435814 9.001178 2.038862 0.000000 0.000000 0.000000 
2.484749 34.194393 -4.904394 0.000000 0.000000 0.000000 4.728398 16.644713 -5.789243 -20.064009 12.660659 19.292940 25.551051 9.767102 2.463383 -8.835190 6.862414 -26.442067 0.795549 -5.275758 6.296440 0.000000 0.000000 0.000000 5.202922 15.346699 -5.890029 6.202165 0.503365 12.961364 -3.230226 -3.019577 3.741878 -15.831480 -5.181767 -3.886490 0.297760 -0.958405 -8.967123 0.000000 0.000000 0.000000 5.162948 16.400432 -5.904987 -0.865325 -1.756713 3.447401 0.384094 1.037845 4.646996 0.148483 -0.193357 -0.043774 0.000000 0.000000 0.000000 0.873680 4.120935 4.355330 -0.489775 5.675528 1.238197 -14.700089 -40.910289 -25.019854 0.000000 0.000000 0.000000 0.287938 2.194842 4.157800 1.988119 -7.747072 -9.265181 1.712631 -2.171637 -3.024265 3.373661 2.837688 -78.803075 3.235852 -12.991044 0.182317 0.000000 0.000000 0.000000 1.232012 2.653104 4.658973 1.126440 1.546752 13.181848 -7.099639 -0.190712 0.821344 0.445006 8.385285 63.916302 -12.147598 8.800181 1.737848 0.000000 0.000000 0.000000 
